<svg width="77" height="70" viewBox="0 0 77 70" fill="none" xmlns="http://www.w3.org/2000/svg">
<path d="M34.0218 59.2625C33.9414 59.2491 33.8543 59.2357 33.7605 59.2156C32.079 58.9342 29.0173 58.4116 25.6743 56.5425C22.4116 56.9445 19.1624 57.5005 16.0003 58.204C15.4978 58.3112 15.0288 58.3647 14.5532 58.3647C12.4361 58.3647 10.4665 57.3397 9.2338 55.618C8.0011 53.9029 7.67283 51.806 8.33608 49.8564C10.6139 42.8354 13.5818 35.8278 17.1593 29.0278C15.6385 26.8103 14.8412 24.2846 14.8412 21.6651C14.8145 18.1948 16.2012 14.9456 18.8408 12.2792C22.1236 8.96964 26.9606 7 31.7775 7C31.9986 7 32.2263 7.0067 32.4474 7.0134H43.9035C48.3653 7.0134 52.5927 8.44038 55.8084 11.0398C58.8098 13.3779 60.6923 16.7008 61.0742 20.3721C61.3958 23.4606 60.6119 26.4887 58.85 29.0345C62.4275 35.8412 65.3954 42.8488 67.6732 49.8765C68.323 51.7993 67.9947 53.9029 66.7687 55.618C65.536 57.3397 63.5664 58.3647 61.4963 58.3647H61.4226C60.967 58.3647 60.4914 58.3112 60.009 58.204C57.4029 57.6278 54.7231 57.1387 52.0165 56.7636C50.8039 58.0298 49.0353 58.8002 47.213 58.8002C46.5766 58.8002 45.9669 58.7064 45.3774 58.5322C43.7494 58.9811 42.9656 59.1017 42.2085 59.2223C42.1214 59.2357 42.0276 59.2491 41.9406 59.2625L37.9946 63.2152L34.0218 59.2491V59.2625Z" fill="white"/>
<path d="M61.4396 56.4607C61.0912 56.4607 60.7495 56.4205 60.4146 56.3468C57.3663 55.6701 54.2846 55.1342 51.1894 54.7322C50.084 56.588 47.4846 57.4455 45.4547 56.5344C42.8285 57.2914 42.2657 57.2579 41.0129 57.4991L37.9848 60.534L34.9432 57.4991C33.5698 57.1976 29.9923 56.9363 26.0731 54.5781C22.5492 54.9868 19.0387 55.5764 15.5818 56.3468C15.2401 56.4205 14.8985 56.4607 14.5501 56.4607C11.4884 56.4942 9.13692 53.3923 10.1284 50.458C12.5067 43.1221 15.6287 35.8531 19.3938 28.8455C17.6653 26.7486 16.7341 24.2698 16.7341 21.657C16.6805 14.1402 24.4251 8.89453 31.7744 8.89453C31.9754 8.89453 32.1831 8.89453 32.384 8.90793H43.9004C47.9268 8.90793 51.7321 10.1875 54.6128 12.5122C59.8585 16.5922 60.8165 23.8611 56.5959 28.8455C60.361 35.8531 63.4829 43.1154 65.8612 50.458C66.8528 53.3923 64.5012 56.4942 61.4396 56.4607Z" fill="white"/>
<path d="M44.1532 11.2012H33.6484V16.8957H44.1532V11.2012Z" fill="#FBC900"/>
<path d="M43.0078 10.4375L43.5974 13.057L48.4076 17.693L49.5867 20.2254L49.9284 21.4916L48.5751 24.2719L44.3611 27.3067V28.995L49.8413 29.6716L54.0619 29.5846L57.4317 23.2603L56.8422 16.8489L54.5644 13.2245L49.2517 11.0271L45.7077 10.4375" fill="#FBC900"/>
<path d="M39.8047 9.3457C39.8047 9.3457 50.5707 12.2399 51.8369 17.1238C53.1031 22.0077 52.5605 23.093 49.2107 26.3489C45.861 29.6049 44.1459 29.2431 44.1459 29.2431L41.7944 28.7004L43.2415 26.6169L47.1339 23.9907L48.8557 19.8304L47.1339 15.7571L40.8029 11.1412" fill="#FEF4CC"/>
<path d="M33.1427 10.4375L32.5531 13.057L27.7429 17.693L26.5638 20.2254L26.2288 21.4916L27.5754 24.2719L31.7961 27.3067V28.995L26.3092 29.6716L22.0953 29.5846L18.7188 23.2603L19.3083 16.8489L21.5861 13.2245L26.8988 11.0271L30.4428 10.4375" fill="#FBC900"/>
<path d="M29.0245 10.3563C29.0245 10.3563 20.6032 14.0678 19.6988 19.5949C18.7944 25.1152 22.6868 29.2823 22.6868 29.2823C22.6868 29.2823 23.8659 30.1867 26.1303 30.0058C28.3947 29.8249 30.0227 29.644 30.0227 29.644C30.0227 29.644 23.7721 27.9223 22.6868 24.7534C21.6015 21.5846 21.6015 18.6837 23.5041 16.0575C25.4067 13.4314 29.0245 10.3496 29.0245 10.3496V10.3563Z" fill="#FEF4CC"/>
<path d="M25.5553 34.2265C25.5553 34.2265 22.3395 44.8786 22.9425 48.4829C23.5454 52.0805 27.1632 54.4722 29.7759 55.3164C32.3887 56.1605 39.3897 56.75 42.4312 56.2409C45.4661 55.7317 50.8658 53.7085 52.132 50.0841C53.3982 46.4597 52.7216 43.4181 52.7216 43.4181L51.8775 40.7182L51.71 34.5614L42.5183 33.2148L33.0721 33.4694L26.9957 33.8044" fill="#F0D0B2"/>
<g style="mix-blend-mode:multiply" opacity="0.6">
<path d="M28.0812 41.5643C26.6274 43.822 25.7364 46.9373 27.0361 49.4429C28.5836 52.2901 31.8932 53.4827 34.928 54.2397L34.9079 54.4273C32.3286 54.3938 29.5886 54.0186 27.2571 52.6854C22.6144 50.1262 22.1254 43.9158 23.9141 39.4004L28.0946 41.5576L28.0812 41.5643Z" fill="#E0BEA2"/>
</g>
<path d="M37.8257 29.5615C40.301 29.5615 42.3076 27.5549 42.3076 25.0796C42.3076 22.6043 40.301 20.5977 37.8257 20.5977C35.3504 20.5977 33.3438 22.6043 33.3438 25.0796C33.3438 27.5549 35.3504 29.5615 37.8257 29.5615Z" fill="#9B0E0E"/>
<path d="M38.1781 30.7507C40.313 30.7507 42.0437 29.02 42.0437 26.8851C42.0437 24.7502 40.313 23.0195 38.1781 23.0195C36.0432 23.0195 34.3125 24.7502 34.3125 26.8851C34.3125 29.02 36.0432 30.7507 38.1781 30.7507Z" fill="#F14950"/>
<path d="M23.8625 51.8879L24.1506 52.3703C20.9281 52.7522 17.7325 53.4623 14.557 54.0317C13.13 54.0652 11.9643 52.5713 12.4466 51.2046C13.3846 48.2233 14.5704 45.2421 15.6892 42.2943C17.1295 39.5341 20.0036 37.1491 23.4873 35.6484C22.7571 37.3099 22.8844 38.7704 23.427 41.3966C23.0519 43.0982 22.804 44.3242 22.8107 45.6373H22.4422L22.8107 45.6507C22.737 47.6472 22.6499 49.9116 23.8558 51.9013L23.8625 51.8879Z" fill="#F14950"/>
<path d="M23.0129 37.3509C23.0129 37.3509 17.1107 43.8427 16.6015 48.6529C16.0924 53.4631 16.769 54.8097 16.769 54.8097L12.89 54.7226L11.7109 53.0344L12.133 46.7905L17.5328 35.656L23.3546 35.0664L25.7999 37.0093" fill="#9B0E0E"/>
<path d="M47.4313 55.8195C49.3479 55.8195 50.9016 54.2658 50.9016 52.3492C50.9016 50.4326 49.3479 48.8789 47.4313 48.8789C45.5147 48.8789 43.9609 50.4326 43.9609 52.3492C43.9609 54.2658 45.5147 55.8195 47.4313 55.8195Z" fill="white"/>
<path d="M28.1675 29.4172L20.6641 30.938L20.8315 33.6379L21.8432 34.9041L27.8325 33.8857L37.2787 33.2962L47.7366 33.9728L53.3038 35.239L54.6571 34.5624L55.4141 30.1742L44.9563 29.1626L42.0889 28.9951L39.8915 30.2613L36.9437 30.0938L35.3359 29.7589L33.5672 28.6602" fill="#FBC900"/>
<path d="M28.4102 35.0684L32.5438 36.08L31.1101 41.4797L29.2544 44.4275L26.6416 44.26L24.5312 42.9938L24.8662 39.624" fill="white"/>
<path d="M49.1307 21.8693L49.3652 22.0569C48.4005 24.194 46.1427 25.7751 43.5367 26.4115C44.3272 17.8898 31.7121 17.9166 32.5428 26.4249C29.9033 25.8086 27.6187 24.2208 26.6406 22.0569C32.8443 16.7643 42.8399 16.6839 49.1307 21.8693Z" fill="#F14950"/>
<path d="M63.2395 53.1176C62.7237 53.8277 61.7924 54.1761 60.9349 53.9751C57.9537 53.3118 54.892 52.7759 51.8438 52.3672C53.9407 48.9237 53.3444 45.2457 52.5472 41.4337C53.1033 38.8209 53.2305 37.3001 52.5003 35.6387C60.0573 38.6266 61.2833 44.5222 63.5477 51.1948C63.7554 51.8581 63.6482 52.5548 63.2395 53.1109V53.1176Z" fill="#F14950"/>
<path d="M37.811 28.6257H39.1308V25.2358H40.7856V23.916H36.1562V25.2358H37.811V28.6257Z" fill="#9B0E0E"/>
<path d="M36.3718 44.9377C35.5545 44.9176 33.8662 46.1236 33.2633 46.6997C31.9703 47.9927 30.7175 49.7212 28.6406 49.1785C28.6607 49.2321 28.721 49.2589 28.7679 49.279C29.4379 49.6408 31.0457 50.1767 31.7894 50.0762C32.4258 49.9891 33.3637 49.3058 33.8595 48.8569C34.9515 47.8654 35.9631 47.4165 37.3834 46.9744C37.5576 46.8002 37.3298 45.5139 37.2293 45.3062C37.0417 44.9176 36.8475 44.9511 36.3785 44.9377H36.3718Z" fill="#1C174A"/>
<path d="M45.1946 46.4263C43.8548 46.2186 43.3992 46.098 42.334 45.5754C41.7444 45.2874 40.1634 44.6375 39.5202 44.8184C39.1517 44.9189 39.0043 45.1534 38.9307 45.4682C38.8905 45.6357 38.857 46.6876 39.0311 46.7746C40.2237 46.7344 40.5117 46.788 41.7109 46.9488C42.3407 47.0359 44.2567 47.2369 44.7726 47.2905C46.4407 47.4714 46.6618 46.3191 46.6618 46.2789C46.012 46.4598 45.9383 46.5402 45.1946 46.4263Z" fill="#1C174A"/>
<path d="M20.9928 33.1302L22.5939 34.7314L24.1951 34.4768C24.1951 34.4768 34.2309 33.0431 40.8098 33.2977C47.3886 33.5523 52.7013 34.5639 52.7013 34.5639C52.7013 34.5639 51.1805 31.0199 33.6413 31.7836C33.6413 31.7836 26.3858 32.2928 24.9521 32.7952C23.5185 33.3044 21.6627 32.2861 21.7498 31.2745C21.8369 30.2628 19.7266 32.1186 19.7266 32.1186" fill="#FEF4CC"/>
<path d="M29.2841 25.1153C29.2841 25.1153 28.1452 23.9161 30.8049 21.511C33.4645 19.1059 35.7424 18.4761 37.6383 18.034C39.5343 17.5918 28.1519 17.5918 28.1519 17.5918L25.4922 20.8209L26.0013 23.0988L27.8973 24.9947" fill="#9B0E0E"/>
<path d="M53.2574 36.1895C53.2574 36.1895 54.4566 51.5647 57.4312 53.2061C60.4058 54.8541 51.9912 53.1458 51.9912 53.1458L51.6094 51.4374L52.8086 48.0207L52.9359 43.9072L51.797 41.1872L52.1118 36.5713" fill="#9B0E0E"/>
<path d="M37.3735 28.3065H38.6933V24.9233H40.3481V23.6035H35.7188V24.9233H37.3735V28.3065Z" fill="#F6D57E"/>
<path d="M43.1628 25.7458C43.1628 28.5194 40.9118 30.7637 38.1382 30.7637C37.3745 30.7637 36.6577 30.5962 36.0078 30.2881C36.1887 30.3082 36.3696 30.3216 36.5572 30.3216C39.3307 30.3216 41.5751 28.0706 41.5751 25.297C41.5751 23.2871 40.3893 21.552 38.6876 20.748C41.1999 21.0227 43.1628 23.1532 43.1628 25.7391V25.7458Z" fill="#F6D57E"/>
<path d="M37.3854 12.4017C37.3854 12.4017 35.2348 12.462 35.1075 13.4133C34.9803 14.3647 34.92 16.3209 34.92 16.3209L31.7578 17.2722L32.8967 12.6563L33.6538 11.0752L35.4224 10.6934H37.7002L37.3854 12.4017Z" fill="#FEF4CC"/>
<path d="M65.8679 50.4607C63.4896 43.118 60.3677 35.8558 56.5959 28.8482C60.8165 23.8638 59.8652 16.5882 54.6128 12.5149C51.7321 10.1902 47.9335 8.91061 43.9004 8.91061H32.384C24.8605 8.60914 16.6872 13.9352 16.7408 21.6597C16.7408 24.2725 17.672 26.7513 19.4005 28.8482C15.6287 35.8558 12.5134 43.118 10.1284 50.4607C9.13692 53.395 11.4884 56.4969 14.5501 56.4634C14.8918 56.4634 15.2401 56.4232 15.5751 56.3495C19.0387 55.579 22.5425 54.9895 26.0664 54.5875C29.9856 56.939 33.5631 57.2003 34.9365 57.5018L37.9781 60.5366L41.0129 57.5018C42.2657 57.2539 42.8285 57.2874 45.4547 56.5304C47.4846 57.4482 50.0907 56.584 51.1894 54.7349C54.2846 55.1302 57.3663 55.6728 60.4146 56.3428C60.7495 56.4165 61.0979 56.4567 61.4396 56.4567C64.5012 56.4969 66.8594 53.3883 65.8679 50.454V50.4607ZM43.4716 11.5837C52.067 11.4899 58.8804 18.6315 55.2426 25.8401C55.1957 25.9339 55.1421 26.0277 55.0885 26.1215L55.1086 26.155C55.0416 26.2421 54.9813 26.3359 54.9143 26.423C53.3667 28.5266 51.8326 29.3105 48.6637 28.9554C47.5382 28.7879 46.406 28.6472 45.2805 28.5266C44.4498 28.4596 44.4096 27.6021 45.1331 27.3207C45.5217 27.1733 45.9035 27.0192 46.272 26.8317C47.8598 26.0545 49.2868 24.8687 50.1912 23.3345C50.1912 23.3278 50.1845 23.3211 50.1778 23.3077C50.1778 23.3077 50.1912 23.3211 50.1979 23.3278C50.8544 22.2291 51.2095 20.9428 51.1827 19.6632C51.1358 16.2934 48.456 13.5399 45.4279 12.4077C44.8115 12.1665 44.1684 11.979 43.5185 11.845C43.4515 11.845 43.3778 11.7981 43.3845 11.7177C43.3845 11.6574 43.4314 11.6038 43.485 11.5904L43.4716 11.5837ZM47.5985 33.2363C41.1603 32.3051 34.5949 32.3185 28.1634 33.2698C28.1299 33.2765 28.0897 33.2832 28.0562 33.2899C27.192 33.4172 26.3344 33.5646 25.4769 33.7254C24.9409 33.8259 24.405 33.9331 23.869 34.047C23.4939 34.1274 23.0986 34.0738 22.7569 33.9063C21.7386 33.4038 21.551 32.0304 22.4219 31.2868C22.5425 31.1796 22.6899 31.0925 22.8373 31.0188C23.2661 30.8446 23.735 30.8044 24.1839 30.6973C24.9141 30.5499 25.6444 30.4159 26.3813 30.2953C28.6725 29.9134 30.9772 29.6454 33.2952 29.4913C33.4091 29.4847 33.5229 29.478 33.6368 29.4713C35.9348 32.0706 40.1085 32.0706 42.4131 29.4713C44.9321 29.632 47.4444 29.9201 49.9299 30.3489C50.5798 30.4628 51.2296 30.5834 51.8795 30.7107C52.4556 30.8446 53.1055 30.8714 53.5677 31.2801C54.72 32.2783 53.9563 34.0805 52.4757 34.0738C52.0603 34.0604 51.6584 33.9264 51.2497 33.8527C50.6669 33.7388 50.084 33.6249 49.4945 33.5244C48.9719 33.4373 48.456 33.3502 47.9335 33.2765C47.9 33.2698 47.8665 33.2631 47.8263 33.2631C47.7526 33.2497 47.6722 33.2363 47.5918 33.2296L47.5985 33.2363ZM29.5167 34.603C29.0477 34.5561 28.639 34.5226 28.2773 34.4958C31.4796 33.8929 34.7489 33.7589 37.9982 33.7254C41.2474 33.7589 44.5101 33.8929 47.7191 34.4958C47.3573 34.5226 46.9487 34.5561 46.4797 34.603C43.5654 34.8844 41.1804 35.8893 40.3028 36.2042C39.4252 36.5191 38.2729 36.6129 38.2729 36.6129H37.7302C35.3787 36.4588 33.5765 34.9983 29.5234 34.603H29.5167ZM32.2299 36.365L28.6256 43.7545C27.3058 43.7277 26.254 43.453 25.4836 42.9439L28.9606 35.8089C30.0794 35.896 31.2786 36.1104 32.2233 36.365H32.2299ZM42.0849 21.2108C38.1657 17.5529 31.7945 20.5342 32.1295 25.9339C29.8248 25.2975 27.9892 23.904 27.0982 22.1621C33.1813 17.1509 42.8084 17.1509 48.8982 22.1621C48.0206 23.8906 46.205 25.2707 43.9339 25.9205C44.0612 24.1184 43.3243 22.3698 42.0849 21.2175V21.2108ZM33.61 25.954C33.4961 24.862 33.811 23.7298 34.4676 22.8589C36.732 19.8575 41.4417 20.8223 42.3394 24.4735C42.4801 25.0429 42.5002 25.6392 42.4131 26.2153C42.2188 27.4748 41.4484 28.6271 40.3631 29.2971C38.9629 30.1814 37.0737 30.1814 35.6735 29.2837C34.5279 28.5735 33.7373 27.314 33.61 25.9674C33.61 25.9674 33.61 25.9674 33.61 25.9607V25.954ZM33.7239 14.2032C33.7239 13.1916 34.548 12.334 35.5931 12.334H40.41C41.1201 12.334 41.7365 12.7293 42.0514 13.3189C42.192 13.5868 42.2724 13.8816 42.2724 14.2032V16.1862C39.5391 15.5967 36.4573 15.5967 33.7239 16.1862V14.2032ZM32.451 11.5837H32.4912C32.6252 11.5971 32.6453 11.7981 32.5113 11.8316C28.1634 12.6556 24.0633 16.3068 24.9342 21.05C25.0816 21.854 25.3898 22.6311 25.7985 23.3345C25.7985 23.3278 25.8119 23.3211 25.8186 23.3144C25.8186 23.3211 25.8052 23.3278 25.8052 23.3412C26.6359 24.7481 27.9021 25.8602 29.3291 26.6307C29.8382 26.9121 30.3809 27.1398 30.9303 27.3408C31.6136 27.6423 31.5533 28.4663 30.7427 28.5333C26.5086 28.9621 23.6077 30.1144 20.9883 26.2756C20.9548 26.2354 20.928 26.1885 20.8945 26.1483C20.8945 26.1483 20.8945 26.1349 20.9079 26.1349C16.9351 18.9263 23.7417 11.5234 32.4577 11.5971L32.451 11.5837ZM14.9721 53.6161C13.6524 53.931 12.346 52.6849 12.7948 51.3115C13.7595 48.3436 14.8449 45.3825 16.0575 42.4414C17.5581 39.5338 20.2312 37.6111 22.844 36.365C22.777 36.5526 22.7234 36.7335 22.6832 36.8943C22.5425 37.457 22.6229 39.7348 23.0584 41.4365C22.6296 43.1381 22.4621 44.2972 22.442 45.6236C22.3683 47.6335 22.2746 49.9984 23.5408 52.0819C20.6734 52.4772 17.8127 52.9864 14.9721 53.6161ZM49.9433 53.127C49.5146 54.5473 47.8866 55.4116 46.4596 54.956C44.9388 54.5339 44.0545 52.7653 44.6172 51.2981C45.0125 50.2128 46.0509 49.4423 47.2635 49.4423C49.1595 49.4088 50.5463 51.3852 49.9433 53.127ZM52.4087 45.7911C52.3886 47.4794 52.0001 49.2414 50.8343 50.5209C50.1912 49.1945 48.8446 48.2766 47.2769 48.2565V48.2431H38.0786C37 48.1761 35.9548 48.9064 35.7271 49.9247C35.7204 50.2597 36.1022 50.4875 36.3903 50.32C37.3215 49.7371 38.5609 49.7304 39.4922 50.32C39.7668 50.4808 40.0214 50.7219 40.2425 50.9564L42.7883 53.5022C42.8754 53.5893 43.2305 53.9444 43.3176 54.0315L43.3779 54.0985C43.264 54.1253 43.1501 54.1521 43.0362 54.1722C42.9759 54.1856 42.9089 54.199 42.8486 54.2124C42.0782 54.3731 41.5824 54.4401 41.5824 54.4401L41.5288 54.4535L38.9629 51.8876C38.4203 51.345 37.5426 51.345 37.0067 51.8876C36.6382 52.2561 34.7757 54.1186 34.4475 54.4468C31.3389 53.9444 26.6225 52.705 24.7467 49.9917C23.313 47.9417 23.5676 45.282 23.668 42.9238C24.7534 44.344 26.4081 45.014 29.0209 45.0073C31.5935 44.9738 33.2952 44.324 34.1594 43.3458C35.0236 42.361 35.3653 41.537 35.7874 40.6192C36.1759 39.775 37.0402 38.8572 37.6699 38.8639C37.69 38.8639 37.7302 38.8639 37.7302 38.8639H38.2729C38.9495 38.8371 39.8003 39.7549 40.209 40.6258C40.6311 41.5437 40.9727 42.3677 41.837 43.3525C42.7012 44.3306 44.4096 44.9805 46.9755 45.014C49.5882 45.014 51.243 44.344 52.3283 42.9305C52.3752 43.8751 52.4221 44.8331 52.402 45.7978L52.4087 45.7911ZM61.4396 53.663C58.4516 53.1136 55.4704 52.4571 52.4556 52.0819C53.7151 50.0051 53.628 47.6335 53.5543 45.6236C53.5342 44.2972 53.3667 43.1381 52.938 41.4365C53.3734 39.7348 53.4538 37.457 53.3131 36.8876C53.2729 36.7268 53.2261 36.5459 53.1524 36.3583C55.7651 37.6111 58.4382 39.5338 59.9389 42.4347C61.1515 45.3825 62.2368 48.3369 63.2015 51.3048C63.5901 52.5174 62.6388 53.6563 61.4396 53.6563V53.663Z" fill="#1C174A"/>
<path d="M43.3724 52.3474C43.3724 52.4613 43.3724 52.5685 43.3858 52.6824L40.4381 49.8284C40.3443 49.7346 40.3175 49.5939 40.3711 49.4734L40.4247 49.3595C40.4783 49.2456 40.5921 49.1719 40.7127 49.1719L44.1027 49.1987C44.3706 49.1987 44.5113 49.5135 44.3438 49.7145C43.7409 50.4247 43.3791 51.3425 43.3791 52.3474H43.3724Z" fill="#A97C50"/>
</svg>
